<?xml version="1.0" encoding="UTF-8"?>
<!DOCTYPE svg PUBLIC "-//W3C//DTD SVG 1.1//EN" "http://www.w3.org/Graphics/SVG/1.1/DTD/svg11.dtd">
<!-- Creator: CorelDRAW 2019 (64-Bit) -->
<svg xmlns="http://www.w3.org/2000/svg" xml:space="preserve" width="188.571mm" height="29.5267mm" version="1.1" style="shape-rendering:geometricPrecision; text-rendering:geometricPrecision; image-rendering:optimizeQuality; fill-rule:evenodd; clip-rule:evenodd"
    viewBox="0 0 188.5716 29.5268"
    xmlns:xlink="http://www.w3.org/1999/xlink"
    xmlns:xodm="http://www.corel.com/coreldraw/odm/2003">
<defs>
<style type="text/css">
    <![CDATA[
    .fil0 {fill:#E42526}
    .fil1 {fill:#ffff}
    ]]>
</style>
</defs>
<g id="Layer_x0020_1">
<metadata id="CorelCorpID_0Corel-Layer"/>
<g id="_723253712">
    <polygon class="fil0" points="-0,0 60.6749,0 57.0929,1.8637 57.0856,14.4191 51.0719,25.6567 53.3651,29.5268 "/>
    <path class="fil1" d="M145.8364 4.5022l-0.0707 0 -3.2752 6.0717 6.5042 0 -3.1583 -6.0717zm-5.2598 9.5921l0 0 -1.4345 3.2476 -7.3669 0 8.881 -17.2885 9.9131 0 9.1188 17.2885 -7.4039 0 -1.4114 -3.2476 -10.2962 0zm-41.3455 -9.5921l0 0 -0.071 0 -3.2749 6.0717 6.5044 0 -3.1585 -6.0717zm-5.259 9.5921l0 0 -1.4358 3.2476 -7.369 0 8.8814 -17.2885 9.914 0 9.1186 17.2885 -7.4041 0 -1.4111 -3.2476 -10.294 0zm78.9599 -14.0397l0 0 -7.7974 7.1304 -0.0551 0 0 -7.1304 -5.3912 0 0 17.2885 5.3912 0 0 -7.4975 0.0551 -2.6605 9.0365 10.158 7.1663 0 -8.6715 -10.1773 6.9516 -7.1111 -6.6855 0zm10.1652 17.2885l0 0 5.4745 0 0 -17.2896 -5.4745 0 0 17.2896zm-51.6882 -13.3139l0 0 0 -3.9745 -18.2727 0 0 3.6442 10.1048 0 -10.0089 9.5284 0 4.1158 18.3103 0 0 -3.4806 -9.9431 0 9.8096 -9.8333zm-41.838 -4.0291l0 0 -6.9995 0 -4.5946 6.0921 -4.5913 -6.0921 -6.9982 0 8.814 11.6761 0 5.6669 5.4225 0 0 -5.6669 8.9471 -11.6761z"/>
</g>
</g>
</svg>
